{"title":"Book of Dragons[2011]BRrip[Ac3-5.1]-=[CaLvIn]=-","uid":7156758,"size":160155876,"categoryP":"video","categoryS":"movie_clips","magnet":"?xt=urn:btih:71c03d37634e7fa5d9c139497a24002c7fdbbc47&amp;dn=Book+of+Dragons%5B2011%5DBRrip%5BAc3-5.1%5D-%3D%5BCaLvIn%5D%3D-&amp;tr=udp%3A%2F%2Ftracker.openbittorrent.com%3A80&amp;tr=udp%3A%2F%2Fopen.demonii.com%3A1337&amp;tr=udp%3A%2F%2Ftracker.coppersurfer.tk%3A6969&amp;tr=udp%3A%2F%2Fexodus.desync.com%3A6969","seeders":0,"leechers":0,"uploader":"rhythmtheguru","files":7,"time":1333475900,"description":"General\nComplete name                    : Book of Dragons[2011]BRrip[Ac3-5.1]-=[CaLvIn]=-\nImdb Link                        : http://www.imdb.com/title/tt2113625\nFormat                           : AVI\nFormat/Info                      : Audio Video Interleave\nFile size                        : 151 MiB\nDuration                         : 17mn 38s\nOverall bit rate                 : 1 199 Kbps\nWriting application              : VirtualDubMod 1.5.10.3 | www.virtualdub-fr.org || (build 2550/release)\nWriting library                  : VirtualDubMod build 2550/release\n\nVideo\nID                               : 0\nFormat                           : MPEG-4 Visual\nFormat profile                   : Advanced Simple@L5\nFormat settings, BVOP            : 2\nFormat settings, QPel            : No\nFormat settings, GMC             : No warppoints\nFormat settings, Matrix          : Default (H.263)\nCodec ID                         : XVID\nCodec ID/Hint                    : XviD\nDuration                         : 17mn 38s\nBit rate                         : 998 Kbps\nWidth                            : 720 pixels\nHeight                           : 400 pixels\nDisplay aspect ratio             : 16:9\nFrame rate                       : 23.976 fps\nColor space                      : YUV\nChroma subsampling               : 4:2:0\nBit depth                        : 8 bits\nScan type                        : Progressive\nCompression mode                 : Lossy\nBits/(Pixel*Frame)               : 0.145\nStream size                      : 126 MiB (83%)\nWriting library                  : XviD 1.2.1 (UTC 2008-12-04)\n\nAudio\nID                               : 1\nFormat                           : AC-3\nFormat/Info                      : Audio Coding 3\nMode extension                   : CM (complete main)\nCodec ID                         : 2000\nDuration                         : 17mn 38s\nBit rate mode                    : Constant\nBit rate                         : 192 Kbps\nChannel(s)                       : 6 channels\nChannel positions                : Front: L C R, Side: L R, LFE\nSampling rate                    : 48.0 KHz\nBit depth                        : 16 bits\nCompression mode                 : Lossy\nStream size                      : 24.2 MiB (16%)\nAlignment                        : Split accross interleaves\nInterleave, duration             : 42 ms (1.00 video frame)\nInterleave, preload duration     : 500 ms\n\n\nScreens :-\n\nThey are in the torrent itself.","torrent":{"xt":"urn:btih:71c03d37634e7fa5d9c139497a24002c7fdbbc47","amp;dn":"Book+of+Dragons%5B2011%5DBRrip%5BAc3-5.1%5D-%3D%5BCaLvIn%5D%3D-","amp;tr":["udp%3A%2F%2Ftracker.openbittorrent.com%3A80","udp%3A%2F%2Fopen.demonii.com%3A1337","udp%3A%2F%2Ftracker.coppersurfer.tk%3A6969","udp%3A%2F%2Fexodus.desync.com%3A6969"],"infoHash":"71c03d37634e7fa5d9c139497a24002c7fdbbc47","infoHashBuffer":{"type":"Buffer","data":[113,192,61,55,99,78,127,165,217,193,57,73,122,36,0,44,127,219,188,71]},"announce":[],"urlList":[]}}